# xmcd
#
# Track frame offsets:
#	150
#	14630
#	26175
#	45345
#	62138
#	81495
#	93270
#	116983
#	137958
#	152625
#
# Disc length: 2185
#
# Revision: 3
# Processed by: cddbd v1.5.1PL0 Copyright (c) Steve Scherf et al.
# Submitted via: CD-DA_X-Tractor v0.23
# Normalized: r2:DSETVAR1
#
DISCID=8908870a
DTITLE=Various Artist - Prescription For The Blues
DYEAR=1900
DGENRE=Blues
TTITLE0=Muddy Waters - Got My Mojo Workin' (Live)
TTITLE1=Mike Bloomfield - Rx For The Blues
TTITLE2=Otis Rush - It May Be The Last Time
TTITLE3=Little Walter - Walter's Blues
TTITLE4=Z Z Hill - Just As I Am
TTITLE5=Lightnin' Hopkins - What'd I Say
TTITLE6=Howlin' Wolf - Dust My Broom (Live)
TTITLE7=Little Walter and Otis Rush - Goin' Down Slow
TTITLE8=Muddy Waters - Hoochie Coochie Man
TTITLE9=Jimmy Reed - Little Rain
EXTD=
EXTT0=
EXTT1=
EXTT2=
EXTT3=
EXTT4=
EXTT5=
EXTT6=
EXTT7=
EXTT8=
EXTT9=
PLAYORDER=
